# xmcd
#
# Track frame offsets: 
#        150
#        19913
#        38751
#        58662
#        66608
#        90566
#        113884
#        132867
#        144833
#        163020
#
# Disc length: 2596 seconds
#
# Revision: 5
# Processed by: cddbd v1.5.2PL0 Copyright (c) Steve Scherf et al.
# Submitted via: ExactAudioCopy v0.90b4
#
DISCID=880a220a
DTITLE=George Michael - Songs From The Last Century
DYEAR=1999
DGENRE=Pop
TTITLE0=Brother Can You Spare A Dime
TTITLE1=Roxanne
TTITLE2=You've Changed
TTITLE3=My Baby Just Cares For Me
TTITLE4=The First Time Ever I Saw Your Face
TTITLE5=Miss Sarajevo
TTITLE6=I Remember You
TTITLE7=Secret Love
TTITLE8=Wild Is The Wind
TTITLE9=Where Or When
EXTD=
EXTT0=
EXTT1=
EXTT2=
EXTT3=
EXTT4=
EXTT5=
EXTT6=
EXTT7=
EXTT8=
EXTT9=
PLAYORDER=
